<svg width="1299" height="200" viewBox="0 0 1299 200" fill="none" xmlns="http://www.w3.org/2000/svg">
<g id="Play Anything Wordmark White" clip-path="url(#clip0_49_13286)">
<path id="Vector" d="M397.173 37.5026L364.844 93.4955L332.524 37.5026H295.998L346.586 125.13L310.623 187.429H347.149L433.699 37.5026H397.173Z" fill="white"/>
<path id="Vector_2" d="M767.101 93.4955L734.771 37.5026H698.245L746.745 121.518L748.833 125.13L712.87 187.429H749.396L769.189 153.153L787.447 121.518L835.946 37.5026H799.42L767.101 93.4955Z" fill="white"/>
<path id="Vector_3" d="M658.577 33.65C645.006 33.65 635.078 37.9098 627.99 49.4571H627.583V37.5026H596.183V149.958H629.807V87.9516C629.807 72.7605 635.486 65.2537 649.056 65.2537C661.416 65.2537 666.677 72.3429 666.677 87.5444V149.948H700.312V78.2209C700.312 44.9989 678.839 33.65 658.577 33.65Z" fill="white"/>
<path id="Vector_4" d="M1048.84 37.5026H1015.22V149.958H1048.84V37.5026Z" fill="white"/>
<path id="Vector_5" d="M1125.04 33.65C1111.47 33.65 1101.55 37.9098 1094.46 49.4571H1094.05V37.5026H1062.65V149.958H1096.27V87.9516C1096.27 72.7605 1101.95 65.2537 1115.52 65.2537C1127.88 65.2537 1133.15 72.3429 1133.15 87.5444V149.948H1166.78V78.2209C1166.78 44.9989 1145.31 33.65 1125.04 33.65Z" fill="white"/>
<path id="Vector_6" d="M1265.37 37.5027V48.0372H1264.96C1259.49 39.3193 1248.35 33.8589 1233.76 33.8589C1201.34 33.8589 1177.24 60.0021 1177.24 94.4352C1177.24 128.868 1200.95 153.602 1233.76 153.602C1247.54 153.602 1260.09 147.526 1265.16 136.782V140.019C1265.16 160.482 1254.82 171.623 1237.81 171.623C1229.5 171.623 1222 168.793 1218.15 160.482H1179.25C1182.09 181.959 1202.75 199.99 1234.56 199.99C1262.72 199.99 1284.8 188.035 1292.9 172.437C1296.95 164.742 1298.98 153.184 1298.98 137.993V37.5027H1265.34H1265.37ZM1237.82 122.197C1221.62 122.197 1210.87 109.021 1210.87 93.2241C1210.87 77.4275 1222.83 65.2642 1237.82 65.2642C1254.23 65.2642 1265.37 77.8242 1265.37 94.2368C1265.37 110.649 1254.23 122.197 1237.82 122.197Z" fill="white"/>
<path id="Vector_7" d="M960.087 33.6501C946.715 33.6501 935.774 39.121 930.91 48.2356V0.010498H897.286V37.4922H874.8V0.010498H841.176V149.948H874.8V48.5906H897.286V149.948H930.91V86.7301C930.91 72.7501 936.985 65.2538 949.752 65.2538C962.519 65.2538 967.78 73.5645 967.78 88.15V149.948H1001.41V79.2337C1001.41 49.8539 985.819 33.6397 960.087 33.6397V33.6501Z" fill="white"/>
<path id="Vector_8" d="M520.249 0.010498L433.699 149.948H478.086L536.044 49.5511L559.698 90.5304C557.788 90.1755 555.826 89.9666 553.811 89.9666C536.19 89.9666 521.899 104.26 521.899 121.884C521.899 139.507 536.19 153.8 553.811 153.8C567.726 153.8 579.533 144.874 583.896 132.449C585.055 129.14 585.723 125.59 585.723 121.884C585.723 116.559 584.397 111.547 582.09 107.131L520.249 0.010498Z" fill="white"/>
<path id="Vector_9" d="M86.5081 5.6901C78.6058 2.0359 66.6531 -0.187949 50.6501 0.0104224H0V149.948H36.6723V102.944H54.5021C97.4482 102.944 112.846 78.4297 112.846 50.6682C112.846 30.403 102.72 13.1865 86.5081 5.6901ZM53.072 69.3046H36.6618V33.6396H51.6523C68.6679 33.6396 76.1631 39.1104 76.1631 51.2633C76.1631 64.0321 68.4695 69.2942 53.072 69.2942V69.3046Z" fill="white"/>
<path id="Vector_10" d="M156.93 0.010498H123.306V149.948H156.93V0.010498Z" fill="white"/>
<path id="Vector_11" d="M257.144 49.4467H256.737C250.255 39.1105 237.488 33.6396 223.719 33.6396C191.504 33.6396 167.4 60.3885 167.4 93.6104C167.4 126.832 190.491 153.79 223.719 153.79C238.511 153.79 251.883 147.714 256.737 137.785H257.144V149.937H290.768V37.5027H257.144V49.4571V49.4467ZM228.98 122.395C213.384 122.395 201.024 109.626 201.024 94.028C201.024 78.4298 213.175 65.0554 228.573 65.0554C243.97 65.0554 257.134 77.8242 257.134 93.6209C257.134 109.417 244.774 122.395 228.969 122.395H228.98Z" fill="white"/>
<path id="Vector_12" d="M1047.8 0H1014.17V23.6688H1047.8V0Z" fill="white"/>
</g>
<defs>
<clipPath id="clip0_49_13286">
<rect width="1299" height="200" fill="white"/>
</clipPath>
</defs>
</svg>
